#
#
#

mtllib salmon.mtl


#
#  Mesh
#
g  Mesh

v 0.000000 -0.192500 0.000065
v 0.066146 0.188801 -0.000064
v 0.000000 0.192500 -0.000065
v -0.066147 0.188801 -0.000064
v -0.066146 -0.188801 0.000064
v -0.129751 0.177847 -0.000060
v -0.188369 0.160058 -0.000054
v -0.188369 -0.160058 0.000054
v -0.239748 0.136118 -0.000046
v -0.281914 0.106948 -0.000036
v -0.281914 -0.106948 0.000036
v -0.313246 0.073667 -0.000025
v -0.332540 0.037554 -0.000013
v -0.313246 -0.073667 0.000025
v -0.339055 0.000000 0.000000
v -0.332540 -0.037554 0.000013
v -0.239748 -0.136118 0.000046
v -0.129751 -0.177847 0.000060
v 0.066147 -0.188801 0.000064
v 0.129751 -0.177847 0.000060
v 0.188369 -0.160058 0.000054
v 0.188368 0.160058 -0.000054
v 0.239748 -0.136118 0.000046
v 0.281915 -0.106948 0.000036
v 0.281914 0.106948 -0.000036
v 0.313246 -0.073667 0.000025
v 0.332541 -0.037554 0.000013
v 0.332540 0.037555 -0.000013
v 0.339055 0.000000 0.000000
v 0.313246 0.073667 -0.000025
v 0.239748 0.136118 -0.000046
v 0.129750 0.177847 -0.000060
vn 0.000000 0.000340 1.000000
vn -0.000000 0.000340 1.000000
vn -0.000000 0.000340 1.000000
vn -0.000000 0.000340 1.000000
vn 0.000000 0.000340 1.000000
vn -0.000000 0.000340 1.000000
vn -0.000000 0.000340 1.000000
vn 0.000000 0.000340 1.000000
vn -0.000001 0.000340 1.000000
vn -0.000000 0.000340 1.000000
vn 0.000001 0.000340 1.000000
vn 0.000000 0.000340 1.000000
vn 0.000000 0.000340 1.000000
vn 0.000000 0.000339 1.000000
vn 0.000000 0.000340 1.000000
vn 0.000001 0.000340 1.000000
vn 0.000000 0.000340 1.000000
vn -0.000000 0.000340 1.000000
vn 0.000000 0.000340 1.000000
vn -0.000000 0.000340 1.000000
vn -0.000000 0.000340 1.000000
vn 0.000000 0.000340 1.000000
vn -0.000001 0.000340 1.000000
vn -0.000000 0.000340 1.000000
vn 0.000000 0.000340 1.000000
vn -0.000001 0.000342 1.000000
vn -0.000000 0.000341 1.000000
vn -0.000001 0.000341 1.000000
vn 0.000000 0.000340 1.000000
vn 0.000001 0.000340 1.000000
vn 0.000000 0.000340 1.000000
vn -0.000000 0.000340 1.000000
vn -0.000001 0.000340 1.000000
vn 0.000000 0.000340 1.000000
vn 0.000000 0.000340 1.000000
vn -0.000000 0.000340 1.000000
vn -0.000001 0.000340 1.000000
vn -0.000000 0.000341 1.000000
vn -0.000000 0.000340 1.000000
vn -0.000000 0.000340 1.000000
vn 0.000001 0.000340 1.000000
vn -0.000000 0.000340 1.000000
vn 0.000001 0.000340 1.000000
vn -0.000000 0.000340 1.000000
f 1//1 2//2 3//1
f 3//1 4//3 5//4
f 6//5 7//6 8//7
f 9//8 10//9 11//10
f 12//11 13//12 14//13
f 15//14 16//15 13//12
f 14//13 11//10 10//9
f 17//16 8//7 7//6
f 18//17 5//4 4//3
f 1//1 19//18 2//2
f 20//19 21//20 22//21
f 23//22 24//23 25//24
f 26//25 27//26 28//27
f 29//28 28//27 27//26
f 30//29 25//24 24//23
f 31//30 22//21 21//20
f 32//31 2//2 19//18
f 4//32 6//5 18//17
f 10//33 12//11 14//34
f 16//15 14//13 13//12
f 8//7 18//17 6//35
f 19//36 20//19 32//31
f 24//37 26//25 30//29
f 28//38 30//29 26//25
f 22//39 32//31 20//19
f 7//40 9//8 17//16
f 11//10 17//41 9//8
f 21//42 23//22 31//30
f 25//24 31//43 23//22
f 3//1 5//44 1//1
